<mxfile host="app.diagrams.net" agent="Mozilla/5.0 (Windows NT 10.0; Win64; x64) AppleWebKit/537.36 (KHTML, like Gecko) Chrome/130.0.0.0 Safari/537.36" version="24.8.2">
  <diagram name="Pagina-1" id="qKh8eAIuVXO0hMB7gNyD">
    <mxGraphModel dx="7688" dy="2700" grid="1" gridSize="10" guides="1" tooltips="1" connect="1" arrows="1" fold="1" page="1" pageScale="1" pageWidth="827" pageHeight="1169" math="0" shadow="0">
      <root>
        <mxCell id="0" />
        <mxCell id="1" parent="0" />
        <UserObject label="&lt;b style=&quot;font-weight:normal;&quot; id=&quot;docs-internal-guid-aaf52d2e-7fff-0b1e-5b99-237400a38f32&quot;&gt;&lt;span style=&quot;font-size:11pt;font-family:Arial,sans-serif;color:#000000;background-color:transparent;font-weight:400;font-style:normal;font-variant:normal;text-decoration:none;vertical-align:baseline;white-space:pre;white-space:pre-wrap;&quot;&gt;&lt;span style=&quot;border:none;display:inline-block;overflow:hidden;width:602px;height:207px;&quot;&gt;&lt;img src=&quot;https://lh7-rt.googleusercontent.com/docsz/AD_4nXe5gqHEQYLFyzurVCUr9GxahFHDbcSDgaXLlXP7qOkEOtFiK8msspfmjel9-_uCfA_J4WfbUe7p1EkV2OFxGn3gEi4s6eJSp2yzbN3Oenl_NkvHbLSDAoyH-3e8shvnEXGDCDUtk5k0W4H4BUiL271RtcQ?key=lkAFoZVAUdJgltaRcAzoWYgH&quot; width=&quot;602&quot; height=&quot;207&quot; style=&quot;margin-left:0px;margin-top:0px;&quot;&gt;&lt;/span&gt;&lt;/span&gt;&lt;/b&gt;" id="Ew0P7SSIKfJ7GXHhDFle-1">
          <mxCell style="text;whiteSpace=wrap;html=1;" vertex="1" parent="1">
            <mxGeometry x="-2400" y="50" width="560" height="230" as="geometry" />
          </mxCell>
        </UserObject>
        <UserObject label="&lt;b style=&quot;font-weight:normal;&quot; id=&quot;docs-internal-guid-95b2fd98-7fff-7ab5-e7a2-91f722f03a3d&quot;&gt;&lt;span style=&quot;font-size:11pt;font-family:Arial,sans-serif;color:#000000;background-color:transparent;font-weight:400;font-style:normal;font-variant:normal;text-decoration:none;vertical-align:baseline;white-space:pre;white-space:pre-wrap;&quot;&gt;&lt;span style=&quot;border:none;display:inline-block;overflow:hidden;width:602px;height:405px;&quot;&gt;&lt;img src=&quot;https://lh7-rt.googleusercontent.com/docsz/AD_4nXdzY3x_r3mPMgwt87itodyEdF1VPh9WjwzuRCoPe-AqYrhyqa7xpEW_TV2fDWO16iMjsF8SIuhzaikoL3tUK2Uk1aZF4suSBtTrh1Ghw6bSoHYLO98k4I8Jyk7_1ou-zxL55PLtY8PtycrU-x-T3akn18DU?key=lkAFoZVAUdJgltaRcAzoWYgH&quot; width=&quot;602&quot; height=&quot;405&quot; style=&quot;margin-left:0px;margin-top:0px;&quot;&gt;&lt;/span&gt;&lt;/span&gt;&lt;/b&gt;" id="Ew0P7SSIKfJ7GXHhDFle-2">
          <mxCell style="text;whiteSpace=wrap;html=1;" vertex="1" parent="1">
            <mxGeometry x="110" y="260" width="560" height="430" as="geometry" />
          </mxCell>
        </UserObject>
        <UserObject label="&lt;b style=&quot;font-weight:normal;&quot; id=&quot;docs-internal-guid-bac6f0ae-7fff-f18f-6797-85e1affbe4e0&quot;&gt;&lt;span style=&quot;font-size:11pt;font-family:Arial,sans-serif;color:#000000;background-color:transparent;font-weight:400;font-style:normal;font-variant:normal;text-decoration:none;vertical-align:baseline;white-space:pre;white-space:pre-wrap;&quot;&gt;&lt;span style=&quot;border:none;display:inline-block;overflow:hidden;width:602px;height:336px;&quot;&gt;&lt;img src=&quot;https://lh7-rt.googleusercontent.com/docsz/AD_4nXeFiTHm9oKTABm_KAS_dLW9DJPZ5aQefhZAOdFRvTtDl1kSQQYRo4DltAqDg279DVXpJRqcUFGbdcdgDZGN4-D0U9rBBWCMGEZgLAQ1zE8OVv3K7KFihoAEu2aKe3VMaNve6xZt7sC2Foy8kVUDLJINYZKp?key=lkAFoZVAUdJgltaRcAzoWYgH&quot; width=&quot;602&quot; height=&quot;336&quot; style=&quot;margin-left:0px;margin-top:0px;&quot;&gt;&lt;/span&gt;&lt;/span&gt;&lt;/b&gt;" id="Ew0P7SSIKfJ7GXHhDFle-3">
          <mxCell style="text;whiteSpace=wrap;html=1;" vertex="1" parent="1">
            <mxGeometry x="-540" y="870" width="560" height="360" as="geometry" />
          </mxCell>
        </UserObject>
        <UserObject label="&lt;b style=&quot;font-weight:normal;&quot; id=&quot;docs-internal-guid-1541bd1f-7fff-2ddc-a0f6-f2d22926900f&quot;&gt;&lt;span style=&quot;font-size:11pt;font-family:Arial,sans-serif;color:#000000;background-color:transparent;font-weight:400;font-style:normal;font-variant:normal;text-decoration:none;vertical-align:baseline;white-space:pre;white-space:pre-wrap;&quot;&gt;&lt;span style=&quot;border:none;display:inline-block;overflow:hidden;width:602px;height:624px;&quot;&gt;&lt;img src=&quot;https://lh7-rt.googleusercontent.com/docsz/AD_4nXefZdHAKdG1sUH9Eb41nwfKt-JTATBDyLuhTBsDKmcHR2QoQ6Q83gB7v1EZ4lKLDj_BqI_CtPnRLBFxBUhiUayAy657p1P7ZnMNLIJ91TBjEbAQGu5FV1JHFEejImQNGYhai6L8jDmiWzTmEHjhhwAuoJ9K?key=lkAFoZVAUdJgltaRcAzoWYgH&quot; width=&quot;602&quot; height=&quot;624&quot; style=&quot;margin-left:0px;margin-top:0px;&quot;&gt;&lt;/span&gt;&lt;/span&gt;&lt;/b&gt;" id="Ew0P7SSIKfJ7GXHhDFle-4">
          <mxCell style="text;whiteSpace=wrap;html=1;" vertex="1" parent="1">
            <mxGeometry x="100" y="710" width="560" height="650" as="geometry" />
          </mxCell>
        </UserObject>
        <UserObject label="&lt;b style=&quot;font-weight:normal;&quot; id=&quot;docs-internal-guid-e019259b-7fff-6b7b-65bf-bb516e1f6300&quot;&gt;&lt;span style=&quot;font-size:11pt;font-family:Arial,sans-serif;color:#000000;background-color:transparent;font-weight:400;font-style:normal;font-variant:normal;text-decoration:none;vertical-align:baseline;white-space:pre;white-space:pre-wrap;&quot;&gt;&lt;span style=&quot;border:none;display:inline-block;overflow:hidden;width:602px;height:409px;&quot;&gt;&lt;img src=&quot;https://lh7-rt.googleusercontent.com/docsz/AD_4nXfCLxX0gJb2wIi4930pxm1amarCagay5zh5FCve5DoBid5LijdAHrwjhjL3kRW80BMMgZUA5eseUzsfGisan1Kq6XWtpGUqHhrh63Vmw65QRnwUEqVvD1tluy5pxuQqRnOApUp9FId3jOtINqCkpr6_xCwp?key=lkAFoZVAUdJgltaRcAzoWYgH&quot; width=&quot;602&quot; height=&quot;409&quot; style=&quot;margin-left:0px;margin-top:0px;&quot;&gt;&lt;/span&gt;&lt;/span&gt;&lt;/b&gt;" id="Ew0P7SSIKfJ7GXHhDFle-5">
          <mxCell style="text;whiteSpace=wrap;html=1;" vertex="1" parent="1">
            <mxGeometry x="-1630" y="1350" width="560" height="440" as="geometry" />
          </mxCell>
        </UserObject>
        <UserObject label="&lt;b style=&quot;font-weight:normal;&quot; id=&quot;docs-internal-guid-36cc6e30-7fff-1c92-e1a6-3c64de7961f1&quot;&gt;&lt;span style=&quot;font-size:11pt;font-family:Arial,sans-serif;color:#000000;background-color:transparent;font-weight:400;font-style:normal;font-variant:normal;text-decoration:none;vertical-align:baseline;white-space:pre;white-space:pre-wrap;&quot;&gt;&lt;span style=&quot;border:none;display:inline-block;overflow:hidden;width:602px;height:421px;&quot;&gt;&lt;img src=&quot;https://lh7-rt.googleusercontent.com/docsz/AD_4nXcq4mrB2Fq70goKOD_wtcWKOHAvGIJgduCQUmD3AZEuI8IIKUrNjRpeKLPsQVt4NFK4pirOHCYkGskBZh1R27QcRprzFMVEz62Iyjip4yilSCZ0ctVPYu4GFyEhuXg-aS5PDMW2ywn_6UPdE3PxWxWi_Uo?key=lkAFoZVAUdJgltaRcAzoWYgH&quot; width=&quot;602&quot; height=&quot;421&quot; style=&quot;margin-left:0px;margin-top:0px;&quot;&gt;&lt;/span&gt;&lt;/span&gt;&lt;/b&gt;" id="Ew0P7SSIKfJ7GXHhDFle-6">
          <mxCell style="text;whiteSpace=wrap;html=1;" vertex="1" parent="1">
            <mxGeometry x="-370" y="1360" width="560" height="450" as="geometry" />
          </mxCell>
        </UserObject>
        <UserObject label="&lt;b style=&quot;font-weight:normal;&quot; id=&quot;docs-internal-guid-f9ee9907-7fff-6e6f-fc69-66da692021b1&quot;&gt;&lt;span style=&quot;font-size:11pt;font-family:Arial,sans-serif;color:#000000;background-color:transparent;font-weight:400;font-style:normal;font-variant:normal;text-decoration:none;vertical-align:baseline;white-space:pre;white-space:pre-wrap;&quot;&gt;&lt;span style=&quot;border:none;display:inline-block;overflow:hidden;width:602px;height:628px;&quot;&gt;&lt;img src=&quot;https://lh7-rt.googleusercontent.com/docsz/AD_4nXescKBC6b0zc4pxoTN-3ncHNcPSDBZs6EZNeL5P7t_PJCtVkIuHu9C-iQouvynVgjwxu4Lhp72ijCgylkY0my11aHl_TDehMUKGWV42TYX-naXio81Fxzc6zazA6SB17iMDlR3jhAE6BKpXCkfAM3LuEr8s?key=lkAFoZVAUdJgltaRcAzoWYgH&quot; width=&quot;602&quot; height=&quot;628&quot; style=&quot;margin-left:0px;margin-top:0px;&quot;&gt;&lt;/span&gt;&lt;/span&gt;&lt;/b&gt;" id="Ew0P7SSIKfJ7GXHhDFle-7">
          <mxCell style="text;whiteSpace=wrap;html=1;" vertex="1" parent="1">
            <mxGeometry x="-990" y="1260" width="560" height="660" as="geometry" />
          </mxCell>
        </UserObject>
        <UserObject label="&lt;b style=&quot;font-weight:normal;&quot; id=&quot;docs-internal-guid-2ff40fe3-7fff-6f7e-573a-06853d64ba42&quot;&gt;&lt;span style=&quot;font-size:11pt;font-family:Arial,sans-serif;color:#000000;background-color:transparent;font-weight:400;font-style:normal;font-variant:normal;text-decoration:none;vertical-align:baseline;white-space:pre;white-space:pre-wrap;&quot;&gt;&lt;span style=&quot;border:none;display:inline-block;overflow:hidden;width:602px;height:625px;&quot;&gt;&lt;img src=&quot;https://lh7-rt.googleusercontent.com/docsz/AD_4nXfjXlv5GrQqaA4hSuBkJh86QRHWTJB1PP867WIT5i6XhgWQ2wJGJ4RZEZvFL4gmBiJu8oA14jyfDmhM5Sr_sd2S9l5tgN_0Y1GjBNjB1aEi6_F_D4iMZWgyiOUs_0O5kaheljxH0-D22nId5VZvdXMRWisk?key=lkAFoZVAUdJgltaRcAzoWYgH&quot; width=&quot;602&quot; height=&quot;625&quot; style=&quot;margin-left:0px;margin-top:0px;&quot;&gt;&lt;/span&gt;&lt;/span&gt;&lt;/b&gt;" id="Ew0P7SSIKfJ7GXHhDFle-8">
          <mxCell style="text;whiteSpace=wrap;html=1;" vertex="1" parent="1">
            <mxGeometry x="400" y="1350" width="560" height="650" as="geometry" />
          </mxCell>
        </UserObject>
        <UserObject label="&lt;b style=&quot;font-weight:normal;&quot; id=&quot;docs-internal-guid-9e59195e-7fff-cf1a-a47f-bf338b9a0aef&quot;&gt;&lt;span style=&quot;font-size:11pt;font-family:Arial,sans-serif;color:#000000;background-color:transparent;font-weight:400;font-style:normal;font-variant:normal;text-decoration:none;vertical-align:baseline;white-space:pre;white-space:pre-wrap;&quot;&gt;&lt;span style=&quot;border:none;display:inline-block;overflow:hidden;width:602px;height:640px;&quot;&gt;&lt;img src=&quot;https://lh7-rt.googleusercontent.com/docsz/AD_4nXfyEFo1M2G3WKOoml80R2uOzqrJOB0M2O5QxxAo2KFPpEy8EWDWlWlQMHtAud1GdHiI2OaIaaIUplq0ks3Ca8_ZVMH4284Ob2LM6mKLj8PoEbVcI_VDXkghUbU0Fmfc5O1kvBOQwH_B9HmkWIzyS5LEAm8a?key=lkAFoZVAUdJgltaRcAzoWYgH&quot; width=&quot;602&quot; height=&quot;640&quot; style=&quot;margin-left:0px;margin-top:0px;&quot;&gt;&lt;/span&gt;&lt;/span&gt;&lt;/b&gt;" id="Ew0P7SSIKfJ7GXHhDFle-9">
          <mxCell style="text;whiteSpace=wrap;html=1;" vertex="1" parent="1">
            <mxGeometry x="-1970" y="1770" width="560" height="670" as="geometry" />
          </mxCell>
        </UserObject>
      </root>
    </mxGraphModel>
  </diagram>
</mxfile>
